<svg width="189" height="35" viewBox="0 0 189 35" fill="none" xmlns="http://www.w3.org/2000/svg">
<path d="M5.30273 6.67188V28H2.47559V6.67188H5.30273ZM18.1787 6.67188L9.31641 16.6182L4.33594 21.7891L3.86719 18.7715L7.61719 14.6406L14.7803 6.67188H18.1787ZM15.4541 28L7.55859 17.5996L9.24316 15.3584L18.8232 28H15.4541ZM22.2949 6.67188L27.832 17.3799L33.3838 6.67188H36.5918L29.2383 20.0312V28H26.4111V20.0312L19.0576 6.67188H22.2949ZM42.3633 6.67188V28H39.5361V6.67188H42.3633ZM54.3896 24.7627L60.6738 6.67188H63.7354L55.8398 28H53.6572L54.3896 24.7627ZM48.5156 6.67188L54.7412 24.7627L55.5176 28H53.335L45.4541 6.67188H48.5156ZM86.9238 21.2178H89.7363C89.5898 22.5654 89.2041 23.7715 88.5791 24.8359C87.9541 25.9004 87.0703 26.7451 85.9277 27.3701C84.7852 27.9854 83.3594 28.293 81.6504 28.293C80.4004 28.293 79.2627 28.0586 78.2373 27.5898C77.2217 27.1211 76.3477 26.457 75.6152 25.5977C74.8828 24.7285 74.3164 23.6885 73.916 22.4775C73.5254 21.2568 73.3301 19.8994 73.3301 18.4053V16.2812C73.3301 14.7871 73.5254 13.4346 73.916 12.2236C74.3164 11.0029 74.8877 9.95801 75.6299 9.08887C76.3818 8.21973 77.2852 7.55078 78.3398 7.08203C79.3945 6.61328 80.5811 6.37891 81.8994 6.37891C83.5107 6.37891 84.873 6.68164 85.9863 7.28711C87.0996 7.89258 87.9639 8.73242 88.5791 9.80664C89.2041 10.8711 89.5898 12.1064 89.7363 13.5127H86.9238C86.7871 12.5166 86.5332 11.6621 86.1621 10.9492C85.791 10.2266 85.2637 9.66992 84.5801 9.2793C83.8965 8.88867 83.0029 8.69336 81.8994 8.69336C80.9521 8.69336 80.1172 8.87402 79.3945 9.23535C78.6816 9.59668 78.0811 10.1094 77.5928 10.7734C77.1143 11.4375 76.7529 12.2334 76.5088 13.1611C76.2646 14.0889 76.1426 15.1191 76.1426 16.252V18.4053C76.1426 19.4502 76.25 20.4316 76.4648 21.3496C76.6895 22.2676 77.0264 23.0732 77.4756 23.7666C77.9248 24.46 78.4961 25.0068 79.1895 25.4072C79.8828 25.7979 80.7031 25.9932 81.6504 25.9932C82.8516 25.9932 83.8086 25.8027 84.5215 25.4219C85.2344 25.041 85.7715 24.4941 86.1328 23.7812C86.5039 23.0684 86.7676 22.2139 86.9238 21.2178Z" fill="#333333"/>
<path d="M120.342 19.6357H114.644V17.3359H120.342C121.445 17.3359 122.339 17.1602 123.022 16.8086C123.706 16.457 124.204 15.9688 124.517 15.3438C124.839 14.7188 125 14.0059 125 13.2051C125 12.4727 124.839 11.7842 124.517 11.1396C124.204 10.4951 123.706 9.97754 123.022 9.58691C122.339 9.18652 121.445 8.98633 120.342 8.98633H115.303V28H112.476V6.67188H120.342C121.953 6.67188 123.315 6.9502 124.429 7.50684C125.542 8.06348 126.387 8.83496 126.963 9.82129C127.539 10.7979 127.827 11.916 127.827 13.1758C127.827 14.543 127.539 15.71 126.963 16.6768C126.387 17.6436 125.542 18.3809 124.429 18.8887C123.315 19.3867 121.953 19.6357 120.342 19.6357ZM134.434 6.67188V28H131.606V6.67188H134.434ZM147.017 6.67188V28H144.233V6.67188H147.017ZM153.872 6.67188V8.98633H137.393V6.67188H153.872Z" fill="#333333"/>
<path d="M100 6.5L91.5 28L101 16.5L110 28L101.5 6.5H100Z" fill="#FF7628"/>
<path d="M161.5 7L153 28.5L162.5 17L171.5 28.5L163 7H161.5Z" fill="#FF7628"/>
<path d="M187.41 25.7002V28H176.746V25.7002H187.41ZM177.303 6.67188V28H174.476V6.67188H177.303Z" fill="#333333"/>
</svg>
